<?xml version="1.0" encoding="UTF-8"?><svg id="a" xmlns="http://www.w3.org/2000/svg" viewBox="0 0 107.94 147.23"><defs><style>.b{fill:#6ac3c7;}</style></defs><path class="b" d="M105.08,46.79c-1.91-3.13-4.44-5.66-7.57-7.57-3.14-1.91-6.57-2.87-10.29-2.87h-30.67l.08,20.35,29.56,.52c.29,0,.51,.1,.66,.29,.15,.2,.22,.39,.22,.59v49.35c0,7.81,6.34,14.15,14.15,14.15h6.72V57.08c0-3.72-.96-7.15-2.87-10.29Z"/><path class="b" d="M56.82,100.32h-17.45c-.2,0-.39-.1-.59-.29-.2-.2-.29-.39-.29-.59V56.81h0v-20.87h0V14.15c0-7.81-6.34-14.15-14.15-14.15h-6.72l.21,36.35H0v20.35H17.82l-.21,43.76c0,3.73,.96,7.15,2.87,10.29,1.91,3.14,4.43,5.66,7.57,7.57,3.14,1.91,6.61,2.87,10.44,2.87h32.49v-6.72c0-7.81-6.34-14.15-14.15-14.15Z"/></svg>